<svg width="25" height="38" viewBox="0 0 25 38" fill="none" xmlns="http://www.w3.org/2000/svg">
<path fill-rule="evenodd" clip-rule="evenodd" d="M10.1388 36.2559C9.86429 36.8233 9.27984 37.1889 8.65023 37.1889C8.39868 37.1889 8.15674 37.1334 7.92962 37.0224C2.74112 34.5071 0 30.0753 0 24.2039V17.5727C0 16.6606 0.742063 15.9193 1.65355 15.9193C2.56503 15.9193 3.30708 16.6606 3.30708 17.5727V24.2039C3.30708 28.7835 5.34757 32.0952 9.37304 34.0476C10.1928 34.4456 10.5368 35.4362 10.1388 36.2559ZM5.24622 20.8873C5.24622 21.8246 6.00603 22.5838 6.94268 22.5838C7.88006 22.5838 8.63987 21.8246 8.63987 20.8873V7.35479C8.63987 6.41672 7.88006 5.65764 6.94268 5.65764C6.00603 5.65764 5.24622 6.41672 5.24622 7.35479V20.8873ZM10.4961 20.4937C10.4961 21.4302 11.2559 22.19 12.1926 22.19C13.13 22.19 13.8898 21.4302 13.8898 20.4937V2.29951C13.8898 1.36208 13.13 0.60376 12.1926 0.60376C11.2559 0.60376 10.4961 1.36208 10.4961 2.29951V20.4937ZM15.746 21.7454C15.746 22.6828 16.5059 23.4419 17.4425 23.4419C18.3799 23.4419 19.1397 22.6828 19.1397 21.7454V5.41273C19.1397 4.47537 18.3799 3.71554 17.4425 3.71554C16.5059 3.71554 15.746 4.47537 15.746 5.41273V21.7454ZM20.9959 23.9073C20.9959 24.8165 21.7328 25.5528 22.6413 25.5528C23.5505 25.5528 24.2874 24.8165 24.2874 23.9073V12.8688C24.2874 11.9596 23.5505 11.2227 22.6413 11.2227C21.7328 11.2227 20.9959 11.9596 20.9959 12.8688V23.9073Z" fill="#4B5563"/>
</svg>
