<svg width="50" height="50" viewBox="0 0 50 50" fill="none" xmlns="http://www.w3.org/2000/svg">
<mask id="mask0_1_2635" style="mask-type:luminance" maskUnits="userSpaceOnUse" x="0" y="0" width="50" height="50">
<path d="M49.7514 0.721558H0.919067V49.5539H49.7514V0.721558Z" fill="white"/>
</mask>
<g mask="url(#mask0_1_2635)">
<path d="M49.7026 25.1377C49.7026 11.6795 38.793 0.770386 25.3352 0.770386C24.969 0.770386 24.6027 0.779708 24.2409 0.796355L19.2556 14.4956H23.5973C26.1787 14.4956 27.5704 16.484 26.687 18.9127L20.5385 35.8087L15.3779 35.8078L21.9747 17.6979H18.0925L11.4957 35.8078H6.33054L14.0883 14.4956L18.7562 1.67023C8.49476 4.54091 0.967896 13.96 0.967896 25.1377C0.967896 36.6473 8.94974 46.2926 19.6773 48.8436L24.201 36.4167L32.1807 14.4956H41.6897C44.2733 14.4956 45.665 16.484 44.7816 18.9127L39.379 33.7527C38.9683 34.8831 37.6477 35.8078 36.4446 35.8078H29.5903L24.6117 49.494C24.8514 49.5004 25.0933 49.5051 25.3352 49.5051C38.793 49.5051 49.7026 38.5951 49.7026 25.1377Z" fill="#4B5563"/>
<path d="M40.0804 17.6848H36.2004L30.7667 32.5933H34.6467L40.0804 17.6848Z" fill="#4B5563"/>
</g>
</svg>
