<svg width="61" height="25" viewBox="0 0 61 25" fill="none" xmlns="http://www.w3.org/2000/svg">
<g clip-path="url(#clip0_1_344)">
<g clip-path="url(#clip1_1_344)">
<g clip-path="url(#clip2_1_344)">
<path d="M4.26671 24.221H1.00916V8.56898C1.00916 8.56898 1.00915 5.58764 3.39803 4.63903C5.56974 3.75818 6.98134 5.51988 6.98134 5.51988L17.677 19.9523C18.2199 20.3588 18.4371 19.9523 18.4371 19.5457V4.63903H21.7489V20.1555C21.7489 21.4429 20.8803 23.1369 19.5772 23.7467C18.2742 24.3565 16.9169 24.3566 15.2881 22.5949L5.24399 9.04329C4.97252 8.7045 4.26671 8.63674 4.26671 9.31432V24.221Z" fill="#0F0E47"/>
<path d="M23.8109 4.63923H27.1227V18.6651C27.1227 20.1558 28.1542 20.1558 29.0772 20.1558H43.6276C44.2248 20.1558 44.9307 19.2749 44.9307 18.3263C44.9307 17.3777 44.2248 16.4291 43.5733 16.4291H34.1264C32.4976 16.4968 29.1315 14.5996 29.1315 10.6697C29.1315 5.85887 32.3347 4.70699 33.8007 4.57147H60.6212V8.7047H53.9432V24.2212H50.6857V8.7047H34.2893C32.7149 8.56918 31.629 11.8893 34.1807 12.3636H44.2792C45.7993 12.3636 48.2968 13.9898 48.3511 18.0552C48.3511 22.1885 46.3966 24.1535 44.2792 24.1535H29.2401C26.7969 24.1535 25.874 23.4081 25.0052 22.4595C24.1909 21.4431 24.0823 20.9011 23.8109 18.8684V4.63923Z" fill="#0F0E47"/>
</g>
</g>
</g>
<defs>
<clipPath id="clip0_1_344">
<rect width="60" height="20.43" fill="white" transform="translate(0.690002 4.39014)"/>
</clipPath>
<clipPath id="clip1_1_344">
<rect width="60" height="20.43" fill="white" transform="translate(0.690002 4.39014)"/>
</clipPath>
<clipPath id="clip2_1_344">
<rect width="60" height="20.4255" fill="white" transform="translate(0.690002 4.3924)"/>
</clipPath>
</defs>
</svg>
