<svg width="81" height="32" viewBox="0 0 81 32" fill="none" xmlns="http://www.w3.org/2000/svg">
<path d="M58.9039 24.1009C57.2125 24.7894 55.8785 27.1691 53.8498 28.5216C53.7521 28.5926 53.6367 28.6359 53.5168 28.6465C53.3503 28.6465 53.1395 28.4798 53.1395 27.7245C53.1395 25.1246 53.9741 23.8674 54.691 22.0231C57.1637 15.6081 61.3988 10.1169 65.1722 4.12202C65.4674 3.6741 65.6295 3.15003 65.6339 2.61288C65.6339 2.15097 65.4674 1.77896 65.2543 1.31216C65.0879 0.935267 64.3332 0.600098 63.4942 0.600098C63.0347 0.600098 62.6152 0.641825 62.0691 0.641825C60.0981 0.641825 59.6808 3.53492 59.2191 4.28872C56.0761 9.61322 52.4691 16.1949 50.6246 20.8491C50.2206 21.893 49.79 22.9351 49.4571 24.0057C47.6347 24.5344 46.2674 27.0974 44.1321 28.5216C44.0344 28.5926 43.919 28.6359 43.7992 28.6465C43.6327 28.6465 43.4218 28.4798 43.4218 27.7245C43.4218 25.1246 44.2564 23.8674 44.9734 22.0231C47.4483 15.6081 51.6812 10.1169 55.4523 4.12202C55.7498 3.6741 55.9096 3.15003 55.9141 2.61288C55.9141 2.15097 55.7476 1.77896 55.5389 1.31216C55.3724 0.935267 54.6155 0.600098 53.7765 0.600098C53.3148 0.600098 52.8975 0.641825 52.3515 0.641825C50.3804 0.641825 49.9609 3.53492 49.4992 4.28872C46.3562 9.61322 42.7515 16.1949 40.907 20.8491C40.7605 21.2276 40.6095 21.6062 40.4608 21.9847L40.321 22.0648C38.1812 23.322 36.3789 25.545 33.7797 27.0539C33.2802 27.3476 31.7265 28.4381 30.4679 28.4381C30.1905 28.4328 29.9152 28.3606 29.6711 28.2279C29.2937 28.0612 28.9164 27.2641 28.9164 27.0124C28.9164 26.8022 28.9586 26.7605 29.3781 26.5121C33.0672 24.2909 36.0836 21.1041 38.6851 17.9176C39.6484 16.7503 40.907 14.439 40.907 12.7616C40.907 11.6708 40.5296 10.4136 39.2289 9.95172C38.3277 9.63076 37.3777 9.46184 36.421 9.45141C35.5332 9.44098 34.652 9.60989 33.8307 9.94839C33.0094 10.2869 32.2658 10.7876 31.6421 11.4207C30.701 12.4213 29.7954 13.4534 28.9519 14.5191C28.0685 13.7571 26.8255 13.4335 25.6469 13.4335C24.264 13.4335 21.6626 15.1528 20.3219 16.1583C20.1133 16.325 19.9889 16.41 19.9024 16.41C19.8602 16.41 19.8203 16.3683 19.8203 16.2851C19.8758 15.9244 19.9046 15.5597 19.9024 15.1945C19.8935 14.3924 19.6627 13.6086 19.2365 12.9298C19.11 12.7214 18.3553 12.2628 17.4341 12.2628C16.2999 12.2628 15.2522 12.8082 15.2522 13.3951C15.2522 13.8137 15.6296 13.9822 15.6296 14.3591C15.5474 15.0678 15.4054 15.7688 15.21 16.4551C14.4975 19.1382 13.6185 21.7796 12.6952 24.421C12.1957 25.8884 10.5155 27.1873 10.5155 28.7817C10.5155 29.2818 10.8506 29.9488 11.3123 30.4575C12.067 31.2912 12.5265 31.5898 13.199 31.5898C13.5364 31.594 13.8649 31.4755 14.1224 31.2562C14.7017 30.7916 15.1013 30.1395 15.2522 29.4119C16.3421 24.4643 19.4873 21.1108 22.9655 18.888C24.133 18.1343 25.7334 17.3372 25.9421 17.3372C26.2462 17.3691 26.5436 17.4351 26.8321 17.5341C25.8466 19.1031 25.0808 20.7989 24.5525 22.5751C24.3861 23.1331 24.3017 23.712 24.2995 24.2942C24.3195 25.2953 24.5037 26.2866 24.8455 27.2275C25.305 28.5615 26.0619 29.7437 27.1074 30.2891C29.0385 31.2897 30.4191 31.8399 31.6798 31.8399C32.3258 31.8621 32.965 31.7021 33.5222 31.378C36.279 29.8187 37.9681 28.6365 39.1934 27.586C39.2267 28.6516 39.4353 29.2418 40.1945 30.0374C40.9514 30.8327 42.1233 31.5381 43.6726 31.8817C43.9212 31.9298 44.1743 31.9578 44.4273 31.9649C46.2031 31.9649 47.91 30.5226 49.2284 29.0933C49.4082 29.4423 49.6413 29.7608 49.921 30.0374C50.6734 30.8344 51.8476 31.5381 53.4014 31.8817C53.65 31.9301 53.9008 31.9578 54.1538 31.9649C56.2337 31.9649 58.2202 29.9856 59.5942 28.3664C60.0537 29.3135 61.3322 30.2507 62.8727 31.0011C63.3033 31.2149 63.7783 31.3288 64.2577 31.3345C66.0601 31.3345 67.3586 29.8671 68.3663 28.7784C70.9655 25.9268 72.3905 22.4049 73.4804 17.9609C73.5647 17.6275 73.6913 17.5008 73.8577 17.5008C74.3771 17.5103 74.8943 17.4823 75.4092 17.4173C76.5413 17.2506 77.4202 16.8719 78.4701 16.7037C79.0983 16.5785 79.0162 16.3701 79.6022 16.1583C80.0217 15.9916 80.3569 15.8247 80.3569 15.4045C80.3569 14.6909 79.0561 13.9371 77.0851 13.9371C75.5358 13.9371 74.6124 14.0623 73.9842 14.0623C73.0187 14.0623 72.7679 13.7686 72.1375 12.1345C72.0132 11.8009 71.8889 11.6342 71.5093 11.3008C70.708 10.6407 69.6981 10.2862 68.6593 10.3002C66.5639 10.3002 64.7616 12.438 63.503 14.2405C63.2078 14.6592 62.7905 14.9943 62.502 15.4562C60.764 18.031 59.1126 20.9525 58.9039 24.1009ZM5.30815 9.8232C6.35805 9.8232 6.94404 9.73996 7.06834 9.73996C7.19486 9.73996 7.27921 9.78169 7.27921 9.90666C7.27921 9.99167 7.23705 10.1169 6.94627 10.7404C4.38701 16.2333 2.62682 21.808 1.07528 27.9711C0.970957 28.4392 0.915472 28.9171 0.908813 29.397C0.908813 29.9839 1.0753 30.6125 1.66572 30.9476C2.79775 31.6149 3.71889 31.9116 4.34705 31.9116C5.27042 31.9116 5.73213 31.3245 5.73213 30.3608C5.71881 29.561 5.7743 28.7615 5.8986 27.9711C7.06613 21.8013 8.83298 16.9871 11.5587 11.9627C12.8572 9.57304 13.0259 9.44808 13.0259 9.23787C13.0148 9.11757 12.9726 9.00215 12.9016 8.90448C14.7173 8.50006 16.5729 8.2892 18.433 8.27588C18.6439 8.27588 19.4829 8.56932 19.6005 8.69428C19.8935 8.98794 20.1887 9.28138 20.6926 9.28138C21.1099 9.28138 21.8246 8.98795 22.0732 8.82103C22.6614 8.40085 22.9544 7.94072 22.9544 7.18515C22.9544 6.4733 20.3152 4.71223 18.4685 4.71223C16.3687 4.72976 14.2778 4.95328 12.2224 5.37923C11.3878 5.54593 8.36463 6.00783 6.18493 6.00783C4.08957 6.00783 4.21388 5.7144 3.3349 5.7144C3.15067 5.71573 2.96864 5.75768 2.80217 5.83759C2.6357 5.9175 2.48921 6.03314 2.37379 6.17631C2.16515 6.38651 2.04082 7.22354 2.04082 7.97889C2.04082 8.35578 2.04085 8.6459 2.24949 8.90116C2.87987 9.65495 4.09402 9.8232 5.31039 9.8232H5.30815ZM36.3722 13.2184C36.3722 13.5968 36.2479 13.8488 35.744 14.6441C35.2402 15.4396 35.451 15.4411 34.8229 16.2799C33.6065 17.9143 32.0971 19.5502 30.1261 21.3527C29.5823 21.8531 29.4979 21.8531 29.4136 21.8531C29.3825 21.8511 29.3514 21.8371 29.3293 21.8142C29.3048 21.7911 29.2915 21.7605 29.2893 21.7279C29.2893 21.6029 29.3315 21.4344 29.7488 20.5605C31.0495 17.8359 32.6432 16.0331 34.4034 14.2723C35.3667 13.3085 35.9549 12.9733 36.1636 12.9733C36.2901 12.9733 36.3722 13.0151 36.3722 13.2235V13.2184ZM68.6127 14.3089C68.6548 14.3089 68.697 14.3506 68.7392 14.4356C68.8058 14.6057 68.9212 14.7515 69.0721 14.8543C69.2386 14.9792 69.2386 15.5663 69.2386 16.0216C69.2386 20.0887 66.9324 23.4421 64.6683 26.8373C64.1667 27.5926 63.8715 27.7176 63.6207 27.7176C63.4098 27.7176 63.0746 27.1725 62.9548 26.8373C62.8216 26.4453 62.7506 26.0353 62.7439 25.6216C62.7439 22.3516 65.8448 17.489 67.9002 14.8059C68.2331 14.344 68.4862 14.3056 68.6127 14.3056V14.3089Z" fill="#4B5563"/>
</svg>
