<svg width="47" height="43" viewBox="0 0 47 43" fill="none" xmlns="http://www.w3.org/2000/svg">
<path d="M44.1092 8.41689C40.6372 2.59496 34.8175 0.160889 23.608 0.160889C12.3986 0.160889 6.57887 2.59496 3.07382 8.38404C1.15604 11.7719 0.445084 17.7254 0.445084 21.5572C0.445084 25.3892 1.13939 31.3921 3.13996 34.6978C6.61195 40.5197 12.4317 42.9538 23.6411 42.9538C34.8175 42.9538 40.6703 40.5197 44.1423 34.7635C46.1096 31.4249 46.8041 25.4221 46.8041 21.6232C46.771 17.7255 46.0601 11.7719 44.1092 8.41689ZM18.0363 33.6452C16.7797 33.6452 14.9612 33.0861 14.0354 31.0631L8.46358 17.6431C7.28983 14.6499 9.58783 11.8047 12.3324 11.8047C13.589 11.8047 15.4075 12.3639 16.3334 14.3869L21.9051 27.8069C23.0789 30.8329 20.7312 33.6452 18.0363 33.6452ZM29.2458 33.6452C27.9892 33.6452 26.1706 33.0861 25.2448 31.0631L19.6731 17.6431C18.4827 14.6499 20.7973 11.7883 23.5253 11.7883C24.7818 11.7883 26.6006 12.3474 27.5264 14.3704L33.098 27.7905C34.2884 30.8329 31.9406 33.6452 29.2458 33.6452ZM36.2228 23.5474C34.9662 23.5474 33.1477 22.988 32.2219 20.9653L30.8495 17.6924C29.659 14.6992 31.9737 11.8376 34.7017 11.8376C35.9582 11.8376 37.777 12.3967 38.7028 14.4197L40.075 17.6924C41.2985 20.7187 38.9177 23.5474 36.2228 23.5474Z" fill="#4B5563"/>
</svg>
